# Blender 4.4.3
# www.blender.org
mtllib sail.mtl
o Cylinder
v -3.819324 19.141182 -0.108587
v -3.819324 -1.624731 -1.128488
v -3.454741 19.141182 -0.144496
v -3.653711 -1.624731 -1.144798
v -3.104166 19.141182 -0.250842
v -3.494462 -1.624731 -1.193107
v -2.781076 19.141182 -0.423538
v -3.347698 -1.624731 -1.271554
v -2.497886 19.141182 -0.655946
v -3.219059 -1.624731 -1.377125
v -2.265476 19.141182 -0.939136
v -3.113487 -1.624731 -1.505766
v -2.092780 19.141182 -1.262228
v -3.035039 -1.624731 -1.652529
v -1.986436 19.141182 -1.612800
v -2.986733 -1.624731 -1.811779
v -1.950527 19.141182 -1.977384
v -2.970421 -1.624731 -1.977391
v -1.986436 19.141182 -2.341969
v -2.986733 -1.624731 -2.143004
v -2.092780 19.141182 -2.692542
v -3.035039 -1.624731 -2.302251
v -2.265476 19.141182 -3.015634
v -3.113487 -1.624731 -2.449017
v -2.497886 19.141182 -3.298824
v -3.219059 -1.624731 -2.577656
v -2.781076 19.141182 -3.531232
v -3.347698 -1.624731 -2.683229
v -3.104166 19.141182 -3.703928
v -3.494462 -1.624731 -2.761674
v -3.454741 19.141182 -3.810274
v -3.653711 -1.624731 -2.809983
v -3.819324 19.141182 -3.846180
v -3.819324 -1.624731 -2.826295
v -4.183908 19.141182 -3.810274
v -3.984937 -1.624731 -2.809983
v -4.534482 19.141182 -3.703928
v -4.144186 -1.624731 -2.761674
v -4.857572 19.141182 -3.531232
v -4.290950 -1.624731 -2.683229
v -5.140762 19.141182 -3.298824
v -4.419589 -1.624731 -2.577656
v -5.373172 19.141182 -3.015634
v -4.525162 -1.624731 -2.449017
v -5.545868 19.141182 -2.692542
v -4.603609 -1.624731 -2.302251
v -5.652212 19.141182 -2.341969
v -4.651915 -1.624731 -2.143004
v -5.688121 19.141182 -1.977384
v -4.668227 -1.624731 -1.977391
v -5.652212 19.141182 -1.612800
v -4.651915 -1.624731 -1.811779
v -5.545868 19.141182 -1.262228
v -4.603609 -1.624731 -1.652529
v -5.373172 19.141182 -0.939136
v -4.525162 -1.624731 -1.505766
v -5.140762 19.141182 -0.655946
v -4.419589 -1.624731 -1.377125
v -4.857572 19.141182 -0.423538
v -4.290950 -1.624731 -1.271554
v -4.534482 19.141182 -0.250842
v -4.144186 -1.624731 -1.193107
v -4.183908 19.141182 -0.144496
v -3.984937 -1.624731 -1.144798
v -3.819324 19.141182 -0.108587
v -3.454741 19.141182 -0.144496
v -3.104166 19.141182 -0.250842
v -2.781076 19.141182 -0.423538
v -2.497886 19.141182 -0.655946
v -2.265476 19.141182 -0.939136
v -2.092780 19.141182 -1.262228
v -1.986436 19.141182 -1.612800
v -1.950527 19.141182 -1.977384
v -1.986436 19.141182 -2.341969
v -2.092780 19.141182 -2.692542
v -2.265476 19.141182 -3.015634
v -2.497886 19.141182 -3.298824
v -2.781076 19.141182 -3.531232
v -3.104166 19.141182 -3.703928
v -3.454741 19.141182 -3.810274
v -3.819324 19.141182 -3.846180
v -4.183908 19.141182 -3.810274
v -4.534482 19.141182 -3.703928
v -4.857572 19.141182 -3.531232
v -5.140762 19.141182 -3.298824
v -5.373172 19.141182 -3.015634
v -5.545868 19.141182 -2.692542
v -5.652212 19.141182 -2.341969
v -5.688121 19.141182 -1.977384
v -5.652212 19.141182 -1.612800
v -5.545868 19.141182 -1.262228
v -5.373172 19.141182 -0.939136
v -5.140762 19.141182 -0.655946
v -4.857572 19.141182 -0.423538
v -4.534482 19.141182 -0.250842
v -4.183908 19.141182 -0.144496
v -3.819324 19.141182 0.909905
v -3.256043 19.141182 0.854427
v -2.714407 19.141182 0.690123
v -2.215233 19.141182 0.423310
v -1.777701 19.141182 0.064237
v -1.418630 19.141182 -0.373293
v -1.151818 19.141182 -0.872467
v -0.987513 19.141182 -1.414103
v -0.932035 19.141182 -1.977384
v -0.987513 19.141182 -2.540667
v -1.151818 19.141182 -3.082303
v -1.418630 19.141182 -3.581477
v -1.777701 19.141182 -4.019007
v -2.215233 19.141182 -4.378078
v -2.714407 19.141182 -4.644893
v -3.256043 19.141182 -4.809195
v -3.819324 19.141182 -4.864675
v -4.382607 19.141182 -4.809195
v -4.924241 19.141182 -4.644893
v -5.423415 19.141182 -4.378078
v -5.860947 19.141182 -4.019007
v -6.220017 19.141182 -3.581477
v -6.486831 19.141182 -3.082303
v -6.651135 19.141182 -2.540667
v -6.706613 19.141182 -1.977384
v -6.651135 19.141182 -1.414103
v -6.486831 19.141182 -0.872467
v -6.220017 19.141182 -0.373293
v -5.860947 19.141182 0.064237
v -5.423415 19.141182 0.423310
v -4.924241 19.141182 0.690123
v -4.382607 19.141182 0.854427
v -3.819324 19.267975 0.909905
v -3.256043 19.267975 0.854427
v -2.714407 19.267975 0.690123
v -2.215233 19.267975 0.423310
v -1.777701 19.267971 0.064237
v -1.418630 19.267971 -0.373293
v -1.151818 19.267971 -0.872467
v -0.987513 19.267975 -1.414103
v -0.932035 19.267975 -1.977384
v -0.987513 19.267975 -2.540667
v -1.151818 19.267975 -3.082303
v -1.418630 19.267975 -3.581477
v -1.777701 19.267975 -4.019007
v -2.215233 19.267975 -4.378078
v -2.714407 19.267975 -4.644893
v -3.256043 19.267975 -4.809195
v -3.819324 19.267975 -4.864675
v -4.382607 19.267975 -4.809195
v -4.924241 19.267975 -4.644893
v -5.423415 19.267975 -4.378078
v -5.860947 19.267975 -4.019007
v -6.220017 19.267975 -3.581477
v -6.486831 19.267975 -3.082303
v -6.651135 19.267975 -2.540667
v -6.706613 19.267975 -1.977384
v -6.651135 19.267975 -1.414103
v -6.486831 19.267971 -0.872467
v -6.220017 19.267971 -0.373293
v -5.860947 19.267971 0.064237
v -5.423415 19.267975 0.423310
v -4.924241 19.267975 0.690123
v -4.382607 19.267975 0.854427
v -3.454741 -1.624730 -0.144501
v -3.819324 -1.624730 -0.108595
v -3.104166 -1.624730 -0.250848
v -2.781076 -1.624731 -0.423543
v -2.497886 -1.624731 -0.655951
v -2.265476 -1.624731 -0.939142
v -2.092780 -1.624731 -1.262233
v -1.986436 -1.624731 -1.612806
v -1.950527 -1.624731 -1.977391
v -1.986436 -1.624731 -2.341975
v -2.092780 -1.624731 -2.692547
v -2.265476 -1.624731 -3.015639
v -2.497886 -1.624731 -3.298829
v -2.781076 -1.624731 -3.531238
v -3.104166 -1.624731 -3.703933
v -3.454741 -1.624731 -3.810279
v -3.819324 -1.624731 -3.846188
v -4.183908 -1.624731 -3.810279
v -4.534482 -1.624731 -3.703933
v -4.857572 -1.624731 -3.531238
v -5.140762 -1.624731 -3.298829
v -5.373172 -1.624731 -3.015639
v -5.545868 -1.624731 -2.692547
v -5.652212 -1.624731 -2.341975
v -5.688121 -1.624731 -1.977391
v -5.652212 -1.624731 -1.612806
v -5.545868 -1.624731 -1.262233
v -5.373172 -1.624731 -0.939142
v -5.140762 -1.624731 -0.655951
v -4.857572 -1.624731 -0.423543
v -4.534482 -1.624730 -0.250848
v -4.183908 -1.624730 -0.144501
v -3.653711 -2.356921 -1.144798
v -3.819324 -2.356921 -1.128488
v -3.494464 -2.356921 -1.193106
v -3.347698 -2.356921 -1.271554
v -3.219059 -2.356921 -1.377127
v -3.113487 -2.356921 -1.505765
v -3.035039 -2.356921 -1.652529
v -2.986733 -2.356921 -1.811779
v -2.970421 -2.356921 -1.977391
v -2.986733 -2.356921 -2.143004
v -3.035039 -2.356921 -2.302251
v -3.113487 -2.356921 -2.449017
v -3.219059 -2.356921 -2.577656
v -3.347698 -2.356921 -2.683229
v -3.494464 -2.356921 -2.761676
v -3.653711 -2.356921 -2.809982
v -3.819324 -2.356921 -2.826295
v -3.984937 -2.356921 -2.809982
v -4.144186 -2.356921 -2.761676
v -4.290950 -2.356921 -2.683229
v -4.419589 -2.356921 -2.577656
v -4.525162 -2.356921 -2.449017
v -4.603609 -2.356921 -2.302251
v -4.651915 -2.356921 -2.143004
v -4.668227 -2.356921 -1.977391
v -4.651915 -2.356921 -1.811779
v -4.603609 -2.356921 -1.652529
v -4.525162 -2.356921 -1.505765
v -4.419589 -2.356921 -1.377127
v -4.290950 -2.356921 -1.271554
v -4.144186 -2.356921 -1.193106
v -3.984937 -2.356921 -1.144798
vn -0.0000 -0.0000 1.0000
vn 0.1951 -0.0000 0.9808
vn 0.3827 -0.0000 0.9239
vn 0.5556 -0.0000 0.8315
vn 0.7071 -0.0000 0.7071
vn 0.8315 -0.0000 0.5556
vn 0.9239 -0.0000 0.3827
vn 0.9808 -0.0000 0.1951
vn 1.0000 -0.0000 -0.0000
vn 0.9808 -0.0000 -0.1951
vn 0.9239 -0.0000 -0.3827
vn 0.8315 -0.0000 -0.5556
vn 0.7071 -0.0000 -0.7071
vn 0.5556 -0.0000 -0.8315
vn 0.3827 -0.0000 -0.9239
vn 0.1951 -0.0000 -0.9808
vn -0.0000 -0.0000 -1.0000
vn -0.1951 -0.0000 -0.9808
vn -0.3827 -0.0000 -0.9239
vn -0.5556 -0.0000 -0.8315
vn -0.7071 -0.0000 -0.7071
vn -0.8315 -0.0000 -0.5556
vn -0.9239 -0.0000 -0.3827
vn -0.9808 -0.0000 -0.1951
vn -1.0000 -0.0000 -0.0000
vn -0.9808 -0.0000 0.1951
vn -0.9239 -0.0000 0.3827
vn -0.8315 -0.0000 0.5556
vn -0.7071 -0.0000 0.7071
vn -0.5556 -0.0000 0.8315
vn -0.3827 -0.0000 0.9239
vn -0.1951 -0.0000 0.9808
vn 0.0001 -1.0000 -0.0000
vn -0.0000 -1.0000 -0.0000
vn -0.0000 -1.0000 -0.0001
vn 0.0001 -1.0000 -0.0001
vn -0.0000 -1.0000 0.0001
vn 0.0001 -1.0000 0.0001
vn -0.0000 1.0000 -0.0000
vt 1.000000 0.500000
vt 1.000000 1.000000
vt 0.968750 1.000000
vt 0.968750 0.500000
vt 0.937500 1.000000
vt 0.937500 0.500000
vt 0.906250 1.000000
vt 0.906250 0.500000
vt 0.875000 1.000000
vt 0.875000 0.500000
vt 0.843750 1.000000
vt 0.843750 0.500000
vt 0.812500 1.000000
vt 0.812500 0.500000
vt 0.781250 1.000000
vt 0.781250 0.500000
vt 0.750000 1.000000
vt 0.750000 0.500000
vt 0.718750 1.000000
vt 0.718750 0.500000
vt 0.687500 1.000000
vt 0.687500 0.500000
vt 0.656250 1.000000
vt 0.656250 0.500000
vt 0.625000 1.000000
vt 0.625000 0.500000
vt 0.593750 1.000000
vt 0.593750 0.500000
vt 0.562500 1.000000
vt 0.562500 0.500000
vt 0.531250 1.000000
vt 0.531250 0.500000
vt 0.500000 1.000000
vt 0.500000 0.500000
vt 0.468750 1.000000
vt 0.468750 0.500000
vt 0.437500 1.000000
vt 0.437500 0.500000
vt 0.406250 1.000000
vt 0.406250 0.500000
vt 0.375000 1.000000
vt 0.375000 0.500000
vt 0.343750 1.000000
vt 0.343750 0.500000
vt 0.312500 1.000000
vt 0.312500 0.500000
vt 0.281250 1.000000
vt 0.281250 0.500000
vt 0.250000 1.000000
vt 0.250000 0.500000
vt 0.218750 1.000000
vt 0.218750 0.500000
vt 0.187500 1.000000
vt 0.187500 0.500000
vt 0.156250 1.000000
vt 0.156250 0.500000
vt 0.125000 1.000000
vt 0.125000 0.500000
vt 0.093750 1.000000
vt 0.093750 0.500000
vt 0.062500 1.000000
vt 0.062500 0.500000
vt 0.350722 0.291720
vt 0.340647 0.310568
vt 0.031250 1.000000
vt 0.031250 0.500000
vt 0.000000 1.000000
vt 0.000000 0.500000
vt 0.750000 0.490000
vt 0.796822 0.485388
vt 0.841844 0.471731
vt 0.883337 0.449553
vt 0.919706 0.419706
vt 0.949553 0.383337
vt 0.971731 0.341844
vt 0.985388 0.296822
vt 0.990000 0.250000
vt 0.985388 0.203178
vt 0.971731 0.158156
vt 0.949553 0.116663
vt 0.919706 0.080294
vt 0.883337 0.050447
vt 0.841844 0.028269
vt 0.796822 0.014612
vt 0.750000 0.010000
vt 0.703178 0.014612
vt 0.658156 0.028269
vt 0.616663 0.050447
vt 0.580294 0.080294
vt 0.550447 0.116663
vt 0.528269 0.158156
vt 0.514612 0.203178
vt 0.510000 0.250000
vt 0.514612 0.296822
vt 0.528269 0.341844
vt 0.550447 0.383337
vt 0.580294 0.419706
vt 0.616663 0.449553
vt 0.658156 0.471731
vt 0.703178 0.485388
vt 0.250000 0.359020
vt 0.271269 0.356926
vt 0.296822 0.485388
vt 0.250000 0.490000
vt 0.291720 0.350722
vt 0.341844 0.471731
vt 0.310568 0.340647
vt 0.383337 0.449553
vt 0.327089 0.327089
vt 0.419706 0.419706
vt 0.449553 0.383337
vt 0.471731 0.341844
vt 0.356926 0.271269
vt 0.485388 0.296822
vt 0.359020 0.250000
vt 0.490000 0.250000
vt 0.356926 0.228731
vt 0.485388 0.203178
vt 0.350722 0.208280
vt 0.471731 0.158156
vt 0.340647 0.189432
vt 0.449553 0.116663
vt 0.327089 0.172911
vt 0.419706 0.080294
vt 0.310568 0.159353
vt 0.383337 0.050447
vt 0.291720 0.149278
vt 0.341844 0.028269
vt 0.271269 0.143075
vt 0.296822 0.014612
vt 0.250000 0.140980
vt 0.250000 0.010000
vt 0.228731 0.143074
vt 0.203178 0.014612
vt 0.208280 0.149278
vt 0.158156 0.028269
vt 0.189432 0.159353
vt 0.116663 0.050447
vt 0.172911 0.172911
vt 0.080294 0.080294
vt 0.159353 0.189432
vt 0.050447 0.116663
vt 0.149278 0.208280
vt 0.028269 0.158156
vt 0.143074 0.228731
vt 0.014612 0.203178
vt 0.140980 0.250000
vt 0.010000 0.250000
vt 0.143075 0.271269
vt 0.014612 0.296822
vt 0.149278 0.291720
vt 0.028269 0.341844
vt 0.159353 0.310568
vt 0.050447 0.383337
vt 0.172911 0.327089
vt 0.080294 0.419706
vt 0.189432 0.340647
vt 0.116663 0.449553
vt 0.208280 0.350722
vt 0.158156 0.471731
vt 0.228731 0.356926
vt 0.203178 0.485388
s 1
usemtl metalblanc
f 1/1/1 162/2/1 161/3/2 3/4/2
f 3/4/2 161/3/2 163/5/3 5/6/3
f 5/6/3 163/5/3 164/7/4 7/8/4
f 7/8/4 164/7/4 165/9/5 9/10/5
f 9/10/5 165/9/5 166/11/6 11/12/6
f 11/12/6 166/11/6 167/13/7 13/14/7
f 13/14/7 167/13/7 168/15/8 15/16/8
f 15/16/8 168/15/8 169/17/9 17/18/9
f 17/18/9 169/17/9 170/19/10 19/20/10
f 19/20/10 170/19/10 171/21/11 21/22/11
f 21/22/11 171/21/11 172/23/12 23/24/12
f 23/24/12 172/23/12 173/25/13 25/26/13
f 25/26/13 173/25/13 174/27/14 27/28/14
f 27/28/14 174/27/14 175/29/15 29/30/15
f 29/30/15 175/29/15 176/31/16 31/32/16
f 31/32/16 176/31/16 177/33/17 33/34/17
f 33/34/17 177/33/17 178/35/18 35/36/18
f 35/36/18 178/35/18 179/37/19 37/38/19
f 37/38/19 179/37/19 180/39/20 39/40/20
f 39/40/20 180/39/20 181/41/21 41/42/21
f 41/42/21 181/41/21 182/43/22 43/44/22
f 43/44/22 182/43/22 183/45/23 45/46/23
f 45/46/23 183/45/23 184/47/24 47/48/24
f 47/48/24 184/47/24 185/49/25 49/50/25
f 49/50/25 185/49/25 186/51/26 51/52/26
f 51/52/26 186/51/26 187/53/27 53/54/27
f 53/54/27 187/53/27 188/55/28 55/56/28
f 55/56/28 188/55/28 189/57/29 57/58/29
f 57/58/29 189/57/29 190/59/30 59/60/30
f 59/60/30 190/59/30 191/61/31 61/62/31
f 14/63/7 12/64/6 198/64/6 199/63/7
f 61/62/31 191/61/31 192/65/32 63/66/32
f 63/66/32 192/65/32 162/67/1 1/68/1
s 0
f 7/8/33 9/10/17 69/10/34 68/8/17
s 1
f 80/32/34 81/34/34 113/34/34 112/32/34
s 0
f 25/26/34 27/28/17 78/28/33 77/26/17
f 43/44/35 45/46/17 87/46/33 86/44/17
f 61/62/33 63/66/1 96/66/34 95/62/1
f 17/18/34 19/20/1 74/20/33 73/18/1
f 35/36/34 37/38/1 83/38/33 82/36/1
f 53/54/36 55/56/17 92/56/34 91/54/17
f 9/10/33 11/12/1 70/12/37 69/10/17
f 27/28/34 29/30/1 79/30/33 78/28/17
f 45/46/34 47/48/17 88/48/33 87/46/1
f 1/1/33 3/4/17 66/4/35 65/1/1
f 63/66/36 1/68/1 65/68/34 96/66/17
f 19/20/34 21/22/1 75/22/33 74/20/17
f 37/38/34 39/40/17 84/40/33 83/38/1
f 55/56/38 57/58/17 93/58/34 92/56/1
f 11/12/33 13/14/17 71/14/35 70/12/17
f 29/30/34 31/32/1 80/32/33 79/30/1
f 47/48/34 49/50/1 89/50/33 88/48/1
f 3/4/33 5/6/1 67/6/34 66/4/1
f 21/22/34 23/24/17 76/24/36 75/22/17
f 39/40/34 41/42/17 85/42/33 84/40/17
f 57/58/33 59/60/17 94/60/34 93/58/17
f 13/14/33 15/16/1 72/16/34 71/14/17
f 31/32/34 33/34/17 81/34/36 80/32/17
f 49/50/33 51/52/1 90/52/34 89/50/1
f 5/6/33 7/8/1 68/8/34 67/6/17
f 23/24/34 25/26/1 77/26/38 76/24/17
f 41/42/37 43/44/17 86/44/33 85/42/1
f 59/60/33 61/62/17 95/62/34 94/60/1
f 15/16/33 17/18/1 73/18/34 72/16/1
f 33/34/35 35/36/17 82/36/33 81/34/17
f 51/52/33 53/54/17 91/54/34 90/52/1
s 1
f 111/30/15 112/32/16 144/32/16 143/30/15
f 67/6/34 68/8/34 100/8/34 99/6/34
f 94/60/34 95/62/34 127/62/34 126/60/34
f 81/34/34 82/36/34 114/36/34 113/34/34
f 68/8/34 69/10/34 101/10/34 100/8/34
f 95/62/34 96/66/34 128/66/34 127/62/34
f 82/36/34 83/38/34 115/38/34 114/36/34
f 69/10/34 70/12/34 102/12/34 101/10/34
f 96/66/34 65/68/34 97/68/34 128/66/34
f 83/38/34 84/40/34 116/40/34 115/38/34
f 70/12/34 71/14/34 103/14/34 102/12/34
f 84/40/34 85/42/34 117/42/34 116/40/34
f 71/14/34 72/16/34 104/16/34 103/14/34
f 85/42/34 86/44/34 118/44/34 117/42/34
f 72/16/34 73/18/34 105/18/34 104/16/34
f 86/44/34 87/46/34 119/46/34 118/44/34
f 73/18/34 74/20/34 106/20/34 105/18/34
f 87/46/34 88/48/34 120/48/34 119/46/34
f 74/20/34 75/22/34 107/22/34 106/20/34
f 88/48/34 89/50/34 121/50/34 120/48/34
f 75/22/34 76/24/34 108/24/34 107/22/34
f 89/50/34 90/52/34 122/52/34 121/50/34
f 76/24/34 77/26/34 109/26/34 108/24/34
f 90/52/34 91/54/34 123/54/34 122/52/34
f 77/26/34 78/28/34 110/28/34 109/26/34
f 91/54/34 92/56/34 124/56/34 123/54/34
f 78/28/34 79/30/34 111/30/34 110/28/34
f 65/1/34 66/4/34 98/4/34 97/1/34
f 92/56/34 93/58/34 125/58/34 124/56/34
f 79/30/34 80/32/34 112/32/34 111/30/34
f 66/4/34 67/6/34 99/6/34 98/4/34
f 93/58/34 94/60/34 126/60/34 125/58/34
f 129/69/39 130/70/39 131/71/39 132/72/39 133/73/39 134/74/39 135/75/39 136/76/39 137/77/39 138/78/39 139/79/39 140/80/39 141/81/39 142/82/39 143/83/39 144/84/39 145/85/39 146/86/39 147/87/39 148/88/39 149/89/39 150/90/39 151/91/39 152/92/39 153/93/39 154/94/39 155/95/39 156/96/39 157/97/39 158/98/39 159/99/39 160/100/39
f 98/4/2 99/6/3 131/6/3 130/4/2
f 125/58/29 126/60/30 158/60/30 157/58/29
f 112/32/16 113/34/17 145/34/17 144/32/16
f 99/6/3 100/8/4 132/8/4 131/6/3
f 126/60/30 127/62/31 159/62/31 158/60/30
f 113/34/17 114/36/18 146/36/18 145/34/17
f 100/8/4 101/10/5 133/10/5 132/8/4
f 127/62/31 128/66/32 160/66/32 159/62/31
f 114/36/18 115/38/19 147/38/19 146/36/18
f 101/10/5 102/12/6 134/12/6 133/10/5
f 128/66/32 97/68/1 129/68/1 160/66/32
f 115/38/19 116/40/20 148/40/20 147/38/19
f 102/12/6 103/14/7 135/14/7 134/12/6
f 116/40/20 117/42/21 149/42/21 148/40/20
f 103/14/7 104/16/8 136/16/8 135/14/7
f 117/42/21 118/44/22 150/44/22 149/42/21
f 104/16/8 105/18/9 137/18/9 136/16/8
f 118/44/22 119/46/23 151/46/23 150/44/22
f 105/18/9 106/20/10 138/20/10 137/18/9
f 119/46/23 120/48/24 152/48/24 151/46/23
f 106/20/10 107/22/11 139/22/11 138/20/10
f 120/48/24 121/50/25 153/50/25 152/48/24
f 107/22/11 108/24/12 140/24/12 139/22/11
f 121/50/25 122/52/26 154/52/26 153/50/25
f 108/24/12 109/26/13 141/26/13 140/24/12
f 122/52/26 123/54/27 155/54/27 154/52/26
f 109/26/13 110/28/14 142/28/14 141/26/13
f 123/54/27 124/56/28 156/56/28 155/54/27
f 110/28/14 111/30/15 143/30/15 142/28/14
f 97/1/1 98/4/2 130/4/2 129/1/1
f 124/56/28 125/58/29 157/58/29 156/56/28
f 2/101/34 4/102/34 161/103/34 162/104/34
f 4/102/34 6/105/34 163/106/34 161/103/34
f 6/105/34 8/107/34 164/108/34 163/106/34
f 8/107/34 10/109/34 165/110/34 164/108/34
f 10/109/34 12/64/34 166/111/34 165/110/34
f 12/64/34 14/63/34 167/112/34 166/111/34
f 14/63/34 16/113/34 168/114/34 167/112/34
f 16/113/34 18/115/34 169/116/34 168/114/34
f 18/115/34 20/117/34 170/118/34 169/116/34
f 20/117/34 22/119/34 171/120/34 170/118/34
f 22/119/34 24/121/34 172/122/34 171/120/34
f 24/121/34 26/123/34 173/124/34 172/122/34
f 26/123/34 28/125/34 174/126/34 173/124/34
f 28/125/34 30/127/34 175/128/34 174/126/34
f 30/127/34 32/129/34 176/130/34 175/128/34
f 32/129/34 34/131/34 177/132/34 176/130/34
f 34/131/34 36/133/34 178/134/34 177/132/34
f 36/133/34 38/135/34 179/136/34 178/134/34
f 38/135/34 40/137/34 180/138/34 179/136/34
f 40/137/34 42/139/34 181/140/34 180/138/34
f 42/139/34 44/141/34 182/142/34 181/140/34
f 44/141/34 46/143/34 183/144/34 182/142/34
f 46/143/34 48/145/34 184/146/34 183/144/34
f 48/145/34 50/147/34 185/148/34 184/146/34
f 50/147/34 52/149/34 186/150/34 185/148/34
f 52/149/34 54/151/34 187/152/34 186/150/34
f 54/151/34 56/153/34 188/154/34 187/152/34
f 56/153/34 58/155/34 189/156/34 188/154/34
f 58/155/34 60/157/34 190/158/34 189/156/34
f 60/157/34 62/159/34 191/160/34 190/158/34
f 62/159/34 64/161/34 192/162/34 191/160/34
f 64/161/34 2/101/34 162/104/34 192/162/34
f 193/102/34 194/101/34 224/161/34 223/159/34 222/157/34 221/155/34 220/153/34 219/151/34 218/149/34 217/147/34 216/145/34 215/143/34 214/141/34 213/139/34 212/137/34 211/135/34 210/133/34 209/131/34 208/129/34 207/127/34 206/125/34 205/123/34 204/121/34 203/119/34 202/117/34 201/115/34 200/113/34 199/63/34 198/64/34 197/109/34 196/107/34 195/105/34
f 42/139/21 40/137/20 212/137/20 213/139/21
f 16/113/8 14/63/7 199/63/7 200/113/8
f 44/141/22 42/139/21 213/139/21 214/141/22
f 18/115/9 16/113/8 200/113/8 201/115/9
f 46/143/23 44/141/22 214/141/22 215/143/23
f 20/117/10 18/115/9 201/115/9 202/117/10
f 48/145/24 46/143/23 215/143/23 216/145/24
f 22/119/11 20/117/10 202/117/10 203/119/11
f 50/147/25 48/145/24 216/145/24 217/147/25
f 24/121/12 22/119/11 203/119/11 204/121/12
f 52/149/26 50/147/25 217/147/25 218/149/26
f 26/123/13 24/121/12 204/121/12 205/123/13
f 54/151/27 52/149/26 218/149/26 219/151/27
f 28/125/14 26/123/13 205/123/13 206/125/14
f 56/153/28 54/151/27 219/151/27 220/153/28
f 30/127/15 28/125/14 206/125/14 207/127/15
f 4/102/2 2/101/1 194/101/1 193/102/2
f 58/155/29 56/153/28 220/153/28 221/155/29
f 32/129/16 30/127/15 207/127/15 208/129/16
f 6/105/3 4/102/2 193/102/2 195/105/3
f 60/157/30 58/155/29 221/155/29 222/157/30
f 34/131/17 32/129/16 208/129/16 209/131/17
f 8/107/4 6/105/3 195/105/3 196/107/4
f 62/159/31 60/157/30 222/157/30 223/159/31
f 36/133/18 34/131/17 209/131/17 210/133/18
f 10/109/5 8/107/4 196/107/4 197/109/5
f 64/161/32 62/159/31 223/159/31 224/161/32
f 38/135/19 36/133/18 210/133/18 211/135/19
f 12/64/6 10/109/5 197/109/5 198/64/6
f 2/101/1 64/161/32 224/161/32 194/101/1
f 40/137/20 38/135/19 211/135/19 212/137/20
o ensm_fill
v -4.679952 1.124470 -0.336681
v -4.679961 19.102009 -0.336683
v -4.768198 1.124470 -3.685691
v -4.768191 19.102009 -3.685693
v -5.202507 1.124470 -3.381237
v -5.462321 1.124470 -3.076779
v -5.626133 1.124470 -2.772324
v -5.723665 1.124470 -2.467869
v -5.767687 1.124470 -2.163414
v -5.763041 1.124470 -1.858959
v -5.709357 1.124470 -1.554504
v -5.600920 1.124470 -1.250049
v -5.423611 1.124470 -0.945594
v -5.145030 1.124470 -0.641137
v -4.679954 2.758790 -0.336682
v -4.679954 4.393111 -0.336682
v -4.679954 6.027432 -0.336682
v -4.679956 7.661757 -0.336682
v -4.679956 9.296077 -0.336682
v -4.679956 10.930398 -0.336682
v -4.679959 12.564721 -0.336682
v -4.679959 14.199042 -0.336683
v -4.679959 15.833367 -0.336683
v -4.679961 17.467686 -0.336683
v -5.145034 19.102009 -0.641138
v -5.423614 19.102009 -0.945595
v -5.600923 19.102009 -1.250050
v -5.709357 19.102009 -1.554505
v -5.763041 19.102009 -1.858960
v -5.767687 19.102009 -2.163415
v -5.723663 19.102009 -2.467870
v -5.626131 19.102009 -2.772326
v -5.462319 19.102009 -3.076780
v -5.202500 19.102009 -3.381238
v -4.768191 17.467686 -3.685693
v -4.768194 15.833367 -3.685693
v -4.768194 14.199042 -3.685693
v -4.768194 12.564721 -3.685692
v -4.768194 10.930398 -3.685692
v -4.768196 9.296077 -3.685692
v -4.768196 7.661757 -3.685692
v -4.768196 6.027432 -3.685692
v -4.768198 4.393111 -3.685692
v -4.768198 2.758790 -3.685692
v -5.145030 2.758790 -0.641137
v -5.423611 2.758790 -0.945594
v -5.600920 2.758790 -1.250049
v -5.709357 2.758790 -1.554504
v -5.763041 2.758790 -1.858959
v -5.767687 2.758790 -2.163414
v -5.723665 2.758790 -2.467869
v -5.626133 2.758790 -2.772324
v -5.462321 2.758790 -3.076779
v -5.202505 2.758790 -3.381237
v -5.145032 4.393111 -0.641137
v -5.423611 4.393111 -0.945594
v -5.600920 4.393111 -1.250049
v -5.709357 4.393111 -1.554504
v -5.763041 4.393111 -1.858959
v -5.767687 4.393111 -2.163414
v -5.723665 4.393111 -2.467869
v -5.626133 4.393111 -2.772324
v -5.462321 4.393111 -3.076779
v -5.202505 4.393111 -3.381237
v -5.145032 6.027435 -0.641137
v -5.423611 6.027435 -0.945594
v -5.600920 6.027435 -1.250049
v -5.709357 6.027435 -1.554504
v -5.763041 6.027435 -1.858959
v -5.767687 6.027435 -2.163414
v -5.723665 6.027435 -2.467869
v -5.626133 6.027432 -2.772325
v -5.462321 6.027432 -3.076779
v -5.202505 6.027432 -3.381237
v -5.145032 7.661757 -0.641137
v -5.423611 7.661757 -0.945594
v -5.600920 7.661757 -1.250049
v -5.709357 7.661757 -1.554504
v -5.763041 7.661757 -1.858959
v -5.767687 7.661757 -2.163414
v -5.723665 7.661757 -2.467870
v -5.626133 7.661757 -2.772325
v -5.462321 7.661757 -3.076779
v -5.202505 7.661757 -3.381237
v -5.145032 9.296077 -0.641137
v -5.423611 9.296077 -0.945594
v -5.600920 9.296077 -1.250050
v -5.709357 9.296077 -1.554505
v -5.763041 9.296077 -1.858960
v -5.767687 9.296077 -2.163415
v -5.723665 9.296077 -2.467870
v -5.626131 9.296077 -2.772325
v -5.462321 9.296077 -3.076780
v -5.202505 9.296077 -3.381237
v -5.145032 10.930398 -0.641137
v -5.423614 10.930398 -0.945595
v -5.600923 10.930398 -1.250050
v -5.709357 10.930398 -1.554505
v -5.763041 10.930398 -1.858960
v -5.767687 10.930398 -2.163415
v -5.723665 10.930398 -2.467870
v -5.626131 10.930398 -2.772325
v -5.462319 10.930398 -3.076780
v -5.202502 10.930398 -3.381237
v -5.145034 12.564721 -0.641137
v -5.423614 12.564721 -0.945595
v -5.600923 12.564721 -1.250050
v -5.709357 12.564721 -1.554505
v -5.763041 12.564721 -1.858960
v -5.767687 12.564721 -2.163415
v -5.723665 12.564721 -2.467870
v -5.626131 12.564721 -2.772325
v -5.462319 12.564721 -3.076780
v -5.202502 12.564721 -3.381237
v -5.145034 14.199042 -0.641138
v -5.423614 14.199042 -0.945595
v -5.600923 14.199042 -1.250050
v -5.709357 14.199042 -1.554505
v -5.763041 14.199042 -1.858960
v -5.767687 14.199042 -2.163415
v -5.723665 14.199042 -2.467870
v -5.626131 14.199042 -2.772325
v -5.462319 14.199042 -3.076780
v -5.202502 14.199042 -3.381238
v -5.145034 15.833367 -0.641138
v -5.423614 15.833367 -0.945595
v -5.600923 15.833367 -1.250050
v -5.709357 15.833367 -1.554505
v -5.763041 15.833367 -1.858960
v -5.767687 15.833367 -2.163415
v -5.723665 15.833367 -2.467870
v -5.626131 15.833367 -2.772325
v -5.462319 15.833367 -3.076780
v -5.202502 15.833367 -3.381238
v -5.145034 17.467686 -0.641138
v -5.423614 17.467686 -0.945595
v -5.600923 17.467686 -1.250050
v -5.709357 17.467686 -1.554505
v -5.763041 17.467686 -1.858960
v -5.767687 17.467686 -2.163415
v -5.723665 17.467686 -2.467870
v -5.626131 17.467686 -2.772325
v -5.462319 17.467686 -3.076780
v -5.202502 17.467686 -3.381238
vn -0.6727 -0.0000 -0.7399
vn -0.5740 -0.0000 -0.8188
vn -0.5477 -0.0000 0.8367
vn -0.6478 -0.0000 0.7618
vn -0.8055 -0.0000 0.5925
vn -0.9070 -0.0000 0.4212
vn -0.9668 -0.0000 0.2555
vn -0.9955 -0.0000 0.0948
vn -0.9979 -0.0000 -0.0641
vn -0.9744 -0.0000 -0.2249
vn -0.9204 -0.0000 -0.3911
vn -0.8253 -0.0000 -0.5647
vn -0.9203 -0.0000 -0.3911
vt 0.909091 0.909091
vt 1.000000 0.909091
vt 1.000000 1.000000
vt 0.909091 1.000000
vt 0.000000 0.909091
vt 0.090909 0.909091
vt 0.090909 1.000000
vt 0.000000 1.000000
vt 0.181818 0.909091
vt 0.181818 1.000000
vt 0.272727 0.909091
vt 0.272727 1.000000
vt 0.363636 0.909091
vt 0.363636 1.000000
vt 0.454545 0.909091
vt 0.454545 1.000000
vt 0.545455 0.909091
vt 0.545455 1.000000
vt 0.636364 0.909091
vt 0.636364 1.000000
vt 0.727273 0.909091
vt 0.727273 1.000000
vt 0.818182 0.909091
vt 0.818182 1.000000
vt 0.000000 0.000000
vt 0.090909 0.000000
vt 0.090909 0.090909
vt 0.000000 0.090909
vt 0.090909 0.181818
vt 0.000000 0.181818
vt 0.090909 0.272727
vt 0.000000 0.272727
vt 0.090909 0.363636
vt 0.000000 0.363636
vt 0.090909 0.454545
vt 0.000000 0.454545
vt 0.090909 0.545455
vt 0.000000 0.545455
vt 0.090909 0.636364
vt 0.000000 0.636364
vt 0.090909 0.727273
vt 0.000000 0.727273
vt 0.090909 0.818182
vt 0.000000 0.818182
vt 0.181818 0.000000
vt 0.181818 0.090909
vt 0.181818 0.181818
vt 0.181818 0.272727
vt 0.181818 0.363636
vt 0.181818 0.454545
vt 0.181818 0.545455
vt 0.181818 0.636364
vt 0.181818 0.727273
vt 0.181818 0.818182
vt 0.272727 0.000000
vt 0.272727 0.090909
vt 0.272727 0.181818
vt 0.272727 0.272727
vt 0.272727 0.363636
vt 0.272727 0.454545
vt 0.272727 0.545455
vt 0.272727 0.636364
vt 0.272727 0.727273
vt 0.272727 0.818182
vt 0.363636 0.000000
vt 0.363636 0.090909
vt 0.363636 0.181818
vt 0.363636 0.272727
vt 0.363636 0.363636
vt 0.363636 0.454545
vt 0.363636 0.545455
vt 0.363636 0.636364
vt 0.363636 0.727273
vt 0.363636 0.818182
vt 0.454545 0.000000
vt 0.454545 0.090909
vt 0.454545 0.181818
vt 0.454545 0.272727
vt 0.454545 0.363636
vt 0.454545 0.454545
vt 0.454545 0.545455
vt 0.454545 0.636364
vt 0.454545 0.727273
vt 0.454545 0.818182
vt 0.545455 0.000000
vt 0.545455 0.090909
vt 0.545455 0.181818
vt 0.545455 0.272727
vt 0.545455 0.363636
vt 0.545455 0.454545
vt 0.545455 0.545455
vt 0.545455 0.636364
vt 0.545455 0.727273
vt 0.545455 0.818182
vt 0.636364 0.000000
vt 0.636364 0.090909
vt 0.636364 0.181818
vt 0.636364 0.272727
vt 0.636364 0.363636
vt 0.636364 0.454545
vt 0.636364 0.545455
vt 0.636364 0.636364
vt 0.636364 0.727273
vt 0.636364 0.818182
vt 0.727273 0.000000
vt 0.727273 0.090909
vt 0.727273 0.181818
vt 0.727273 0.272727
vt 0.727273 0.363636
vt 0.727273 0.454545
vt 0.727273 0.545455
vt 0.727273 0.636364
vt 0.727273 0.727273
vt 0.727273 0.818182
vt 0.818182 0.000000
vt 0.818182 0.090909
vt 0.818182 0.181818
vt 0.818182 0.272727
vt 0.818182 0.363636
vt 0.818182 0.454545
vt 0.818182 0.545455
vt 0.818182 0.636364
vt 0.818182 0.727273
vt 0.818182 0.818182
vt 0.909091 0.000000
vt 0.909091 0.090909
vt 0.909091 0.181818
vt 0.909091 0.272727
vt 0.909091 0.363636
vt 0.909091 0.454545
vt 0.909091 0.545455
vt 0.909091 0.636364
vt 0.909091 0.727273
vt 0.909091 0.818182
vt 1.000000 0.000000
vt 1.000000 0.090909
vt 1.000000 0.181818
vt 1.000000 0.272727
vt 1.000000 0.363636
vt 1.000000 0.454545
vt 1.000000 0.545455
vt 1.000000 0.636364
vt 1.000000 0.727273
vt 1.000000 0.818182
s 1
usemtl ensm_fill
f 368/163/40 258/164/40 228/165/41 259/166/41
f 229/167/40 278/168/40 268/169/41 227/170/41
f 278/168/40 288/171/40 267/172/41 268/169/41
f 288/171/40 298/173/40 266/174/41 267/172/41
f 298/173/40 308/175/40 265/176/41 266/174/41
f 308/175/40 318/177/40 264/178/41 265/176/41
f 318/177/40 328/179/40 263/180/41 264/178/41
f 328/179/40 338/181/40 262/182/41 263/180/41
f 338/181/40 348/183/40 261/184/41 262/182/41
f 348/183/40 358/185/40 260/186/41 261/184/41
f 358/185/40 368/163/40 259/166/41 260/186/41
f 225/187/42 239/188/42 269/189/43 238/190/43
f 238/190/43 269/189/43 270/191/44 237/192/44
f 237/192/44 270/191/44 271/193/45 236/194/45
f 236/194/45 271/193/45 272/195/46 235/196/46
f 235/196/46 272/195/46 273/197/47 234/198/47
f 234/198/47 273/197/47 274/199/48 233/200/48
f 233/200/48 274/199/48 275/201/49 232/202/49
f 232/202/49 275/201/49 276/203/50 231/204/50
f 231/204/50 276/203/50 277/205/51 230/206/51
f 230/206/51 277/205/51 278/168/40 229/167/40
f 239/188/42 240/207/42 279/208/43 269/189/43
f 269/189/43 279/208/43 280/209/44 270/191/44
f 270/191/44 280/209/44 281/210/45 271/193/45
f 271/193/45 281/210/45 282/211/46 272/195/46
f 272/195/46 282/211/46 283/212/47 273/197/47
f 273/197/47 283/212/47 284/213/48 274/199/48
f 274/199/48 284/213/48 285/214/49 275/201/49
f 275/201/49 285/214/49 286/215/50 276/203/50
f 276/203/50 286/215/50 287/216/51 277/205/51
f 277/205/51 287/216/51 288/171/40 278/168/40
f 240/207/42 241/217/42 289/218/43 279/208/43
f 279/208/43 289/218/43 290/219/44 280/209/44
f 280/209/44 290/219/44 291/220/45 281/210/45
f 281/210/45 291/220/45 292/221/46 282/211/46
f 282/211/46 292/221/46 293/222/47 283/212/47
f 283/212/47 293/222/47 294/223/48 284/213/48
f 284/213/48 294/223/48 295/224/49 285/214/49
f 285/214/49 295/224/49 296/225/50 286/215/50
f 286/215/50 296/225/50 297/226/51 287/216/51
f 287/216/51 297/226/51 298/173/40 288/171/40
f 241/217/42 242/227/42 299/228/43 289/218/43
f 289/218/43 299/228/43 300/229/44 290/219/44
f 290/219/44 300/229/44 301/230/45 291/220/45
f 291/220/45 301/230/45 302/231/46 292/221/46
f 292/221/46 302/231/46 303/232/47 293/222/47
f 293/222/47 303/232/47 304/233/48 294/223/48
f 294/223/48 304/233/48 305/234/49 295/224/49
f 295/224/49 305/234/49 306/235/50 296/225/50
f 296/225/50 306/235/50 307/236/51 297/226/51
f 297/226/51 307/236/51 308/175/40 298/173/40
f 242/227/42 243/237/42 309/238/43 299/228/43
f 299/228/43 309/238/43 310/239/44 300/229/44
f 300/229/44 310/239/44 311/240/45 301/230/45
f 301/230/45 311/240/45 312/241/46 302/231/46
f 302/231/46 312/241/46 313/242/47 303/232/47
f 303/232/47 313/242/47 314/243/48 304/233/48
f 304/233/48 314/243/48 315/244/49 305/234/49
f 305/234/49 315/244/49 316/245/52 306/235/50
f 306/235/50 316/245/52 317/246/51 307/236/51
f 307/236/51 317/246/51 318/177/40 308/175/40
f 243/237/42 244/247/42 319/248/43 309/238/43
f 309/238/43 319/248/43 320/249/44 310/239/44
f 310/239/44 320/249/44 321/250/45 311/240/45
f 311/240/45 321/250/45 322/251/46 312/241/46
f 312/241/46 322/251/46 323/252/47 313/242/47
f 313/242/47 323/252/47 324/253/48 314/243/48
f 314/243/48 324/253/48 325/254/49 315/244/49
f 315/244/49 325/254/49 326/255/52 316/245/52
f 316/245/52 326/255/52 327/256/51 317/246/51
f 317/246/51 327/256/51 328/179/40 318/177/40
f 244/247/42 245/257/42 329/258/43 319/248/43
f 319/248/43 329/258/43 330/259/44 320/249/44
f 320/249/44 330/259/44 331/260/45 321/250/45
f 321/250/45 331/260/45 332/261/46 322/251/46
f 322/251/46 332/261/46 333/262/47 323/252/47
f 323/252/47 333/262/47 334/263/48 324/253/48
f 324/253/48 334/263/48 335/264/49 325/254/49
f 325/254/49 335/264/49 336/265/52 326/255/52
f 326/255/52 336/265/52 337/266/51 327/256/51
f 327/256/51 337/266/51 338/181/40 328/179/40
f 245/257/42 246/267/42 339/268/43 329/258/43
f 329/258/43 339/268/43 340/269/44 330/259/44
f 330/259/44 340/269/44 341/270/45 331/260/45
f 331/260/45 341/270/45 342/271/46 332/261/46
f 332/261/46 342/271/46 343/272/47 333/262/47
f 333/262/47 343/272/47 344/273/48 334/263/48
f 334/263/48 344/273/48 345/274/49 335/264/49
f 335/264/49 345/274/49 346/275/52 336/265/52
f 336/265/52 346/275/52 347/276/51 337/266/51
f 337/266/51 347/276/51 348/183/40 338/181/40
f 246/267/42 247/277/42 349/278/43 339/268/43
f 339/268/43 349/278/43 350/279/44 340/269/44
f 340/269/44 350/279/44 351/280/45 341/270/45
f 341/270/45 351/280/45 352/281/46 342/271/46
f 342/271/46 352/281/46 353/282/47 343/272/47
f 343/272/47 353/282/47 354/283/48 344/273/48
f 344/273/48 354/283/48 355/284/49 345/274/49
f 345/274/49 355/284/49 356/285/52 346/275/52
f 346/275/52 356/285/52 357/286/51 347/276/51
f 347/276/51 357/286/51 358/185/40 348/183/40
f 247/277/42 248/287/42 359/288/43 349/278/43
f 349/278/43 359/288/43 360/289/44 350/279/44
f 350/279/44 360/289/44 361/290/45 351/280/45
f 351/280/45 361/290/45 362/291/46 352/281/46
f 352/281/46 362/291/46 363/292/47 353/282/47
f 353/282/47 363/292/47 364/293/48 354/283/48
f 354/283/48 364/293/48 365/294/49 355/284/49
f 355/284/49 365/294/49 366/295/52 356/285/52
f 356/285/52 366/295/52 367/296/51 357/286/51
f 357/286/51 367/296/51 368/163/40 358/185/40
f 248/287/42 226/297/42 249/298/43 359/288/43
f 359/288/43 249/298/43 250/299/44 360/289/44
f 360/289/44 250/299/44 251/300/45 361/290/45
f 361/290/45 251/300/45 252/301/46 362/291/46
f 362/291/46 252/301/46 253/302/47 363/292/47
f 363/292/47 253/302/47 254/303/48 364/293/48
f 364/293/48 254/303/48 255/304/49 365/294/49
f 365/294/49 255/304/49 256/305/52 366/295/52
f 366/295/52 256/305/52 257/306/51 367/296/51
f 367/296/51 257/306/51 258/164/40 368/163/40
